Tue Oct  1 10:29:30 COT 2013
Parameter 1: /var/www/pyl5/ImageProcessing/Execution/vocabulary.xml
Parameter 2: /var/www/pyl5/www/output/images/42b33b15baeaddf9d8ee172ab723b871/script.xml
Parameter 3: /var/www/pyl5/www/output/images/42b33b15baeaddf9d8ee172ab723b871/score.xml
Parameter 4: /var/www/pyl5/ImageProcessing
Parameter 5: /var/www/pyl5/www/output/images/42b33b15baeaddf9d8ee172ab723b871/SoundFilm.log
Parameter 6: 
Parameter 7: 

ffmpeg version N-42091-gf7cba73 Copyright (c) 2000-2012 the FFmpeg developers
  built on Jul  1 2012 05:10:32 with gcc 4.6.3
  configuration: --prefix=/root/ffmpeg-static/32bit --arch=x86_32 --extra-cflags='-m32 -I/root/ffmpeg-static/32bit/include -static' --extra-ldflags='-m32 -L/root/ffmpeg-static/32bit/lib -static' --extra-libs='-lxml2 -lexpat -lfreetype' --enable-static --disable-shared --disable-ffserver --disable-doc --enable-bzlib --enable-zlib --enable-postproc --enable-runtime-cpudetect --enable-libx264 --enable-gpl --enable-libtheora --enable-libvorbis --enable-libmp3lame --enable-gray --enable-libass --enable-libfreetype --enable-libopenjpeg --enable-libspeex --enable-libvo-aacenc --enable-libvo-amrwbenc --enable-version3 --enable-libvpx
  libavutil      51. 63.100 / 51. 63.100
  libavcodec     54. 31.100 / 54. 31.100
  libavformat    54. 14.100 / 54. 14.100
  libavdevice    54.  0.100 / 54.  0.100
  libavfilter     3.  0.100 /  3.  0.100
  libswscale      2.  1.100 /  2.  1.100
  libswresample   0. 15.100 /  0. 15.100
  libpostproc    52.  0.100 / 52.  0.100
Guessed Channel Layout for  Input Stream #0.0 : stereo
Input #0, wav, from '/var/www/pyl5/www/output/images/42b33b15baeaddf9d8ee172ab723b871/tmpgarage.wav':
  Duration: 00:00:03.91, bitrate: 1411 kb/s
    Stream #0:0: Audio: pcm_s16le ([1][0][0][0] / 0x0001), 44100 Hz, stereo, s16, 1411 kb/s
[graph 0 input from stream 0:0 @ 0xaf36b60] tb:1/44100 samplefmt:s16 samplerate:44100 chlayout:0x3
Output #0, mp3, to '/var/www/pyl5/www/output/images/42b33b15baeaddf9d8ee172ab723b871/walk001.wav.mp3':
  Metadata:
    TSSE            : Lavf54.14.100
    Stream #0:0: Audio: mp3, 44100 Hz, stereo, s16, 128 kb/s
Stream mapping:
  Stream #0:0 -> #0:0 (pcm_s16le -> libmp3lame)
Press [q] to stop, [?] for help
size=      10kB time=00:00:00.57 bitrate= 139.9kbits/s    size=      19kB time=00:00:01.15 bitrate= 133.9kbits/s    size=      27kB time=00:00:01.69 bitrate= 132.0kbits/s    size=      35kB time=00:00:02.19 bitrate= 131.1kbits/s    size=      45kB time=00:00:02.82 bitrate= 130.4kbits/s    size=      54kB time=00:00:03.37 bitrate= 130.0kbits/s    size=      62kB time=00:00:03.91 bitrate= 129.7kbits/s    
video:0kB audio:62kB subtitle:0 global headers:0kB muxing overhead 0.716198%
ffmpeg version N-42091-gf7cba73 Copyright (c) 2000-2012 the FFmpeg developers
  built on Jul  1 2012 05:10:32 with gcc 4.6.3
  configuration: --prefix=/root/ffmpeg-static/32bit --arch=x86_32 --extra-cflags='-m32 -I/root/ffmpeg-static/32bit/include -static' --extra-ldflags='-m32 -L/root/ffmpeg-static/32bit/lib -static' --extra-libs='-lxml2 -lexpat -lfreetype' --enable-static --disable-shared --disable-ffserver --disable-doc --enable-bzlib --enable-zlib --enable-postproc --enable-runtime-cpudetect --enable-libx264 --enable-gpl --enable-libtheora --enable-libvorbis --enable-libmp3lame --enable-gray --enable-libass --enable-libfreetype --enable-libopenjpeg --enable-libspeex --enable-libvo-aacenc --enable-libvo-amrwbenc --enable-version3 --enable-libvpx
  libavutil      51. 63.100 / 51. 63.100
  libavcodec     54. 31.100 / 54. 31.100
  libavformat    54. 14.100 / 54. 14.100
  libavdevice    54.  0.100 / 54.  0.100
  libavfilter     3.  0.100 /  3.  0.100
  libswscale      2.  1.100 /  2.  1.100
  libswresample   0. 15.100 /  0. 15.100
  libpostproc    52.  0.100 / 52.  0.100
[wav @ 0x98f8660] max_analyze_duration 5000000 reached at 5015510
Guessed Channel Layout for  Input Stream #0.0 : mono
Input #0, wav, from '/var/www/pyl5/www/output/images/42b33b15baeaddf9d8ee172ab723b871/tmpgarage.wav':
  Duration: 00:00:07.35, bitrate: 705 kb/s
    Stream #0:0: Audio: pcm_s16le ([1][0][0][0] / 0x0001), 44100 Hz, mono, s16, 705 kb/s
[graph 0 input from stream 0:0 @ 0x98fe900] tb:1/44100 samplefmt:s16 samplerate:44100 chlayout:0x4
Output #0, mp3, to '/var/www/pyl5/www/output/images/42b33b15baeaddf9d8ee172ab723b871/chinchilla.wav.mp3':
  Metadata:
    TSSE            : Lavf54.14.100
    Stream #0:0: Audio: mp3, 44100 Hz, mono, s16, 128 kb/s
Stream mapping:
  Stream #0:0 -> #0:0 (pcm_s16le -> libmp3lame)
Press [q] to stop, [?] for help
size=      19kB time=00:00:01.15 bitrate= 133.9kbits/s    size=      38kB time=00:00:02.40 bitrate= 130.8kbits/s    size=      58kB time=00:00:03.68 bitrate= 129.9kbits/s    size=      78kB time=00:00:04.93 bitrate= 129.4kbits/s    size=      96kB time=00:00:06.11 bitrate= 129.1kbits/s    size=     116kB time=00:00:07.36 bitrate= 128.9kbits/s    
video:0kB audio:116kB subtitle:0 global headers:0kB muxing overhead 0.382138%
Hello, SBI!
temporal = /var/www/pyl5/www/output/images/42b33b15baeaddf9d8ee172ab723b871/
el script es valido
el vocabulario es valido
listo para los objetos
el objeto que da es Rabbit
el objeto que da es Rabbit
listo para los actores
el actor que da es FlyingSquirrel
el actor que da es Bird
el actor que da es Chinchilla
el actor que da es Apple
el actor que da es Butterfly
el actor que da es Rabbit
el objeto que da es Rabbit
es fondo o voz
es el por defecto
el sonido por defecto del actor es RabbitDefault
hola
you can do it
you can do it
you can do it
temporal string = /var/www/pyl5/www/output/images/42b33b15baeaddf9d8ee172ab723b871/
copiando /var/www/pyl5/ImageProcessing/SoundFilm/walk001.wav en /var/www/pyl5/www/output/images/42b33b15baeaddf9d8ee172ab723b871/tmp_1.wav
copiando /var/www/pyl5/ImageProcessing/SoundFilm/walk001.wav en /var/www/pyl5/www/output/images/42b33b15baeaddf9d8ee172ab723b871/tmp_2.wav
copiando /var/www/pyl5/ImageProcessing/SoundFilm/walk001.wav en /var/www/pyl5/www/output/images/42b33b15baeaddf9d8ee172ab723b871/tmp_3.wav
copiando /var/www/pyl5/ImageProcessing/SoundFilm/walk001.wav en /var/www/pyl5/www/output/images/42b33b15baeaddf9d8ee172ab723b871/tmp_4.wav
copiando /var/www/pyl5/ImageProcessing/SoundFilm/walk001.wav en /var/www/pyl5/www/output/images/42b33b15baeaddf9d8ee172ab723b871/tmp_5.wav
tu
el actor es ::Rabbit::
la animacion del actor es ::-default-::
la de la acciones ::WALK::
el actor es ::Rabbit::
la animacion del actor es ::-default-::
la de la acciones ::JUMP::
el actor que da es Butterfly
el objeto que da es Squirrel
el objeto que da es Squirrel
listo para los actores
el actor que da es FlyingSquirrel
el actor que da es Bird
el actor que da es Chinchilla
el actor que da es Apple
el actor que da es Butterfly
el actor que da es Rabbit
el actor que da es Butterfly
el objeto que da es Chinchilla
el objeto que da es Chinchilla
listo para los actores
el actor que da es FlyingSquirrel
el actor que da es Bird
el actor que da es Chinchilla
el objeto que da es Chinchilla
es fondo o voz
es el por defecto
el sonido por defecto del actor es ChinchillaDefault
hola
you can do it
you can do it
you can do it
temporal string = /var/www/pyl5/www/output/images/42b33b15baeaddf9d8ee172ab723b871/
copiando /var/www/pyl5/ImageProcessing/SoundFilm/chinchilla.wav en /var/www/pyl5/www/output/images/42b33b15baeaddf9d8ee172ab723b871/tmp_1.wav
copiando /var/www/pyl5/ImageProcessing/SoundFilm/chinchilla.wav en /var/www/pyl5/www/output/images/42b33b15baeaddf9d8ee172ab723b871/tmp_2.wav
copiando /var/www/pyl5/ImageProcessing/SoundFilm/chinchilla.wav en /var/www/pyl5/www/output/images/42b33b15baeaddf9d8ee172ab723b871/tmp_3.wav
copiando /var/www/pyl5/ImageProcessing/SoundFilm/chinchilla.wav en /var/www/pyl5/www/output/images/42b33b15baeaddf9d8ee172ab723b871/tmp_4.wav
copiando /var/www/pyl5/ImageProcessing/SoundFilm/chinchilla.wav en /var/www/pyl5/www/output/images/42b33b15baeaddf9d8ee172ab723b871/tmp_5.wav
tu
el actor es ::Chinchilla::
la animacion del actor es ::‘F0©@\::
la de la acciones ::EAT::
el actor es ::Chinchilla::
la animacion del actor es ::‘F0©@\::
la de la acciones ::RUN::
el actor que da es Apple
el actor que da es Butterfly
el actor que da es Rabbit
el actor que da es Butterfly
el objeto que da es Butterfly
el objeto que da es Butterfly
listo para los actores
el actor que da es FlyingSquirrel
el actor que da es Bird
el actor que da es Chinchilla
el actor que da es Apple
el actor que da es Butterfly
el objeto que da es Butterfly
el actor que da es Rabbit
el actor que da es Butterfly
el objeto que da es Butterfly
el objeto que da es Bird
el objeto que da es Bird
listo para los actores
el actor que da es FlyingSquirrel
el actor que da es Bird
el objeto que da es Bird
es fondo o voz
es el por defecto
el sonido por defecto del actor es BirdDefault
hola
you can do it
you can do it
you can do it
temporal string = /var/www/pyl5/www/output/images/42b33b15baeaddf9d8ee172ab723b871/
copiando /var/www/pyl5/ImageProcessing/SoundFilm/bird001.wav en /var/www/pyl5/www/output/images/42b33b15baeaddf9d8ee172ab723b871/tmp_ffmpeg version N-42091-gf7cba73 Copyright (c) 2000-2012 the FFmpeg developers
  built on Jul  1 2012 05:10:32 with gcc 4.6.3
  configuration: --prefix=/root/ffmpeg-static/32bit --arch=x86_32 --extra-cflags='-m32 -I/root/ffmpeg-static/32bit/include -static' --extra-ldflags='-m32 -L/root/ffmpeg-static/32bit/lib -static' --extra-libs='-lxml2 -lexpat -lfreetype' --enable-static --disable-shared --disable-ffserver --disable-doc --enable-bzlib --enable-zlib --enable-postproc --enable-runtime-cpudetect --enable-libx264 --enable-gpl --enable-libtheora --enable-libvorbis --enable-libmp3lame --enable-gray --enable-libass --enable-libfreetype --enable-libopenjpeg --enable-libspeex --enable-libvo-aacenc --enable-libvo-amrwbenc --enable-version3 --enable-libvpx
  libavutil      51. 63.100 / 51. 63.100
  libavcodec     54. 31.100 / 54. 31.100
  libavformat    54. 14.100 / 54. 14.100
  libavdevice    54.  0.100 / 54.  0.100
  libavfilter     3.  0.100 /  3.  0.100
  libswscale      2.  1.100 /  2.  1.100
  libswresample   0. 15.100 /  0. 15.100
  libpostproc    52.  0.100 / 52.  0.100
[wav @ 0xa1ee660] max_analyze_duration 5000000 reached at 5015510
Guessed Channel Layout for  Input Stream #0.0 : mono
Input #0, wav, from '/var/www/pyl5/www/output/images/42b33b15baeaddf9d8ee172ab723b871/tmpgarage.wav':
  Duration: 00:00:13.07, bitrate: 705 kb/s
    Stream #0:0: Audio: pcm_s16le ([1][0][0][0] / 0x0001), 44100 Hz, mono, s16, 705 kb/s
[graph 0 input from stream 0:0 @ 0xa1f4900] tb:1/44100 samplefmt:s16 samplerate:44100 chlayout:0x4
Output #0, mp3, to '/var/www/pyl5/www/output/images/42b33b15baeaddf9d8ee172ab723b871/bird001.wav.mp3':
  Metadata:
    TSSE            : Lavf54.14.100
    Stream #0:0: Audio: mp3, 44100 Hz, mono, s16, 128 kb/s
Stream mapping:
  Stream #0:0 -> #0:0 (pcm_s16le -> libmp3lame)
Press [q] to stop, [?] for help
size=      19kB time=00:00:01.15 bitrate= 133.9kbits/s    size=      41kB time=00:00:02.58 bitrate= 130.6kbits/s    size=      61kB time=00:00:03.86 bitrate= 129.8kbits/s    size=      80kB time=00:00:05.09 bitrate= 129.3kbits/s    size=     100kB time=00:00:06.34 bitrate= 129.1kbits/s    size=     119kB time=00:00:07.55 bitrate= 128.9kbits/s    size=     138kB time=00:00:08.80 bitrate= 128.8kbits/s    size=     159kB time=00:00:10.11 bitrate= 128.7kbits/s    size=     179kB time=00:00:11.39 bitrate= 128.6kbits/s    size=     200kB time=00:00:12.74 bitrate= 128.5kbits/s    size=     205kB time=00:00:13.08 bitrate= 128.5kbits/s    
video:0kB audio:205kB subtitle:0 global headers:0kB muxing overhead 0.215428%
ffmpeg version N-42091-gf7cba73 Copyright (c) 2000-2012 the FFmpeg developers
  built on Jul  1 2012 05:10:32 with gcc 4.6.3
  configuration: --prefix=/root/ffmpeg-static/32bit --arch=x86_32 --extra-cflags='-m32 -I/root/ffmpeg-static/32bit/include -static' --extra-ldflags='-m32 -L/root/ffmpeg-static/32bit/lib -static' --extra-libs='-lxml2 -lexpat -lfreetype' --enable-static --disable-shared --disable-ffserver --disable-doc --enable-bzlib --enable-zlib --enable-postproc --enable-runtime-cpudetect --enable-libx264 --enable-gpl --enable-libtheora --enable-libvorbis --enable-libmp3lame --enable-gray --enable-libass --enable-libfreetype --enable-libopenjpeg --enable-libspeex --enable-libvo-aacenc --enable-libvo-amrwbenc --enable-version3 --enable-libvpx
  libavutil      51. 63.100 / 51. 63.100
  libavcodec     54. 31.100 / 54. 31.100
  libavformat    54. 14.100 / 54. 14.100
  libavdevice    54.  0.100 / 54.  0.100
  libavfilter     3.  0.100 /  3.  0.100
  libswscale      2.  1.100 /  2.  1.100
  libswresample   0. 15.100 /  0. 15.100
  libpostproc    52.  0.100 / 52.  0.100
[wav @ 0x9a05660] max_analyze_duration 5000000 reached at 5015510
Guessed Channel Layout for  Input Stream #0.0 : stereo
Input #0, wav, from '/var/www/pyl5/www/output/images/42b33b15baeaddf9d8ee172ab723b871/tmpgarage.wav':
  Duration: 00:00:05.99, bitrate: 1411 kb/s
    Stream #0:0: Audio: pcm_s16le ([1][0][0][0] / 0x0001), 44100 Hz, stereo, s16, 1411 kb/s
[graph 0 input from stream 0:0 @ 0x9a6d420] tb:1/44100 samplefmt:s16 samplerate:44100 chlayout:0x3
Output #0, mp3, to '/var/www/pyl5/www/output/images/42b33b15baeaddf9d8ee172ab723b871/fsquirrel.wav.mp3':
  Metadata:
    TSSE            : Lavf54.14.100
    Stream #0:0: Audio: mp3, 44100 Hz, stereo, s16, 128 kb/s
Stream mapping:
  Stream #0:0 -> #0:0 (pcm_s16le -> libmp3lame)
Press [q] to stop, [?] for help
size=       8kB time=00:00:00.44 bitrate= 143.3kbits/s    size=      16kB time=00:00:00.99 bitrate= 134.9kbits/s    size=      25kB time=00:00:01.54 bitrate= 132.4kbits/s    size=      34kB time=00:00:02.09 bitrate= 131.3kbits/s    size=      42kB time=00:00:02.61 bitrate= 130.6kbits/s    size=      50kB time=00:00:03.13 bitrate= 130.2kbits/s    size=      59kB time=00:00:03.73 bitrate= 129.8kbits/s    size=      67kB time=00:00:04.23 bitrate= 129.6kbits/s    size=      76kB time=00:00:04.78 bitrate= 129.4kbits/s    size=      84kB time=00:00:05.33 bitrate= 129.3kbits/s    size=      95kB time=00:00:06.00 bitrate= 129.1kbits/s    
video:0kB audio:94kB subtitle:0 global headers:0kB muxing overhead 0.468161%
1.wav
copiando /var/www/pyl5/ImageProcessing/SoundFilm/bird001.wav en /var/www/pyl5/www/output/images/42b33b15baeaddf9d8ee172ab723b871/tmp_2.wav
copiando /var/www/pyl5/ImageProcessing/SoundFilm/bird001.wav en /var/www/pyl5/www/output/images/42b33b15baeaddf9d8ee172ab723b871/tmp_3.wav
copiando /var/www/pyl5/ImageProcessing/SoundFilm/bird001.wav en /var/www/pyl5/www/output/images/42b33b15baeaddf9d8ee172ab723b871/tmp_4.wav
copiando /var/www/pyl5/ImageProcessing/SoundFilm/bird001.wav en /var/www/pyl5/www/output/images/42b33b15baeaddf9d8ee172ab723b871/tmp_5.wav
tu
el actor es ::Bird::
la animacion del actor es ::-default-::
la de la acciones ::FLAP::
el actor que da es Chinchilla
el actor que da es Apple
el actor que da es Butterfly
el actor que da es Rabbit
el actor que da es Butterfly
el objeto que da es FlyingSquirrel
el objeto que da es FlyingSquirrel
listo para los actores
el actor que da es FlyingSquirrel
el objeto que da es FlyingSquirrel
es fondo o voz
es el por defecto
el sonido por defecto del actor es FlyingSquirrelDefault
hola
you can do it
you can do it
you can do it
temporal string = /var/www/pyl5/www/output/images/42b33b15baeaddf9d8ee172ab723b871/
copiando /var/www/pyl5/ImageProcessing/SoundFilm/fsquirrel.wav en /var/www/pyl5/www/output/images/42b33b15baeaddf9d8ee172ab723b871/tmp_1.wav
copiando /var/www/pyl5/ImageProcessing/SoundFilm/fsquirrel.wav en /var/www/pyl5/www/output/images/42b33b15baeaddf9d8ee172ab723b871/tmp_2.wav
copiando /var/www/pyl5/ImageProcessing/SoundFilm/fsquirrel.wav en /var/www/pyl5/www/output/images/42b33b15baeaddf9d8ee172ab723b871/tmp_3.wav
copiando /var/www/pyl5/ImageProcessing/SoundFilm/fsquirrel.wav en /var/www/pyl5/www/output/images/42b33b15baeaddf9d8ee172ab723b871/tmp_4.wav
copiando /var/www/pyl5/ImageProcessing/SoundFilm/fsquirrel.wav en /var/www/pyl5/www/output/images/42b33b15baeaddf9d8ee172ab723b871/tmp_5.wav
tu
el actor es ::FlyingSquirrel::
la animacion del actor es ::-default-::
la de la acciones ::FLAP::
el actor es ::FlyingSquirrel::
la animacion del actor es ::-default-::
la de la acciones ::RUN::
el actor que da es Bird
el actor que da es Chinchilla
el actor que da es Apple
el actor que da es Butterfly
el actor que da es Rabbit
el actor que da es Butterfly
el objeto que da es Apple
el objeto que da es Apple
listo para los actores
el actor que da es FlyingSquirrel
el actor que da es Bird
el actor que da es Chinchilla
el actor que da es Apple
el objeto que da es Apple
el actor que da es Butterfly
el actor que da es Rabbit
el actor que da es Butterfly
el objeto que da es SBCamera
el objeto que da es SBCamera
listo para los actores
el actor que da es FlyingSquirrel
el actor que da es Bird
el actor que da es Chinchilla
el actor que da es Apple
el actor que da es Butterfly
el actor que da es Rabbit
el actor que da es Butterfly
el objeto que da es SBRectangle
el objeto que da es SBRectangle
listo para los actores
el actor que da es FlyingSquirrel
el actor que da es Bird
el actor que da es Chinchilla
el actor que da es Apple
el actor que da es Butterfly
el actor que da es Rabbit
el actor que da es Butterfly
sayonara, SBI!

Tue Oct  1 10:29:51 COT 2013
